<svg xmlns="http://www.w3.org/2000/svg" viewBox="0 0 64 64">
  <rect width="64" height="64" rx="16" fill="#10131A"/>
  <!-- code-bracket ears -->
  <path d="M10 27 L4.5 34 L10 41" fill="none" stroke="#7FA06F" stroke-width="3.6" stroke-linecap="round" stroke-linejoin="round"/>
  <path d="M54 27 L59.5 34 L54 41" fill="none" stroke="#7FA06F" stroke-width="3.6" stroke-linecap="round" stroke-linejoin="round"/>
  <!-- hair tuft -->
  <path d="M27 17 Q28 8 33 11 Q36 6 39 17" fill="none" stroke="#ECEAE2" stroke-width="3" stroke-linecap="round" stroke-linejoin="round"/>
  <!-- head -->
  <circle cx="32" cy="35" r="20" fill="#6A88F2"/>
  <!-- glasses -->
  <rect x="16.5" y="27.5" width="14" height="12" rx="4.5" fill="#10131A"/>
  <rect x="33.5" y="27.5" width="14" height="12" rx="4.5" fill="#10131A"/>
  <rect x="30" y="32" width="4" height="2.4" fill="#10131A"/>
  <!-- eyes -->
  <circle cx="23.5" cy="33.5" r="2.6" fill="#ECEAE2"/>
  <circle cx="40.5" cy="33.5" r="2.6" fill="#ECEAE2"/>
  <circle cx="24.4" cy="32.6" r=".9" fill="#10131A"/>
  <circle cx="41.4" cy="32.6" r=".9" fill="#10131A"/>
  <!-- smile -->
  <path d="M25 45 Q32 51.5 39 45" fill="none" stroke="#10131A" stroke-width="3" stroke-linecap="round"/>
</svg>
